<mxfile host="app.diagrams.net" modified="2021-01-11T10:09:30.338Z" agent="5.0 (Windows)" etag="FJwh3_0LMWLadTKFuP19" version="14.1.8" type="github">
  <diagram id="jekARuZWuQkUqj2h8H3Y" name="Page-1">
    <mxGraphModel dx="1038" dy="575" grid="1" gridSize="10" guides="1" tooltips="1" connect="1" arrows="1" fold="1" page="1" pageScale="1" pageWidth="827" pageHeight="1169" math="0" shadow="0">
      <root>
        <mxCell id="0" />
        <mxCell id="1" parent="0" />
        <mxCell id="i9TXsx5ZJMtYGrcfUgoK-15" style="edgeStyle=orthogonalEdgeStyle;rounded=0;orthogonalLoop=1;jettySize=auto;html=1;exitX=0.5;exitY=1;exitDx=0;exitDy=0;" edge="1" parent="1" source="i9TXsx5ZJMtYGrcfUgoK-1" target="i9TXsx5ZJMtYGrcfUgoK-2">
          <mxGeometry relative="1" as="geometry" />
        </mxCell>
        <mxCell id="i9TXsx5ZJMtYGrcfUgoK-1" value="&lt;div&gt;Int antalBomber&lt;/div&gt;&lt;div&gt;Point førstePunkt&lt;br&gt; &lt;/div&gt;" style="rounded=0;whiteSpace=wrap;html=1;" vertex="1" parent="1">
          <mxGeometry x="354" y="110" width="120" height="60" as="geometry" />
        </mxCell>
        <mxCell id="i9TXsx5ZJMtYGrcfUgoK-17" style="edgeStyle=orthogonalEdgeStyle;rounded=0;orthogonalLoop=1;jettySize=auto;html=1;exitX=0.5;exitY=1;exitDx=0;exitDy=0;entryX=0.5;entryY=0;entryDx=0;entryDy=0;" edge="1" parent="1" source="i9TXsx5ZJMtYGrcfUgoK-2" target="i9TXsx5ZJMtYGrcfUgoK-3">
          <mxGeometry relative="1" as="geometry" />
        </mxCell>
        <mxCell id="i9TXsx5ZJMtYGrcfUgoK-2" value="Oprettelse af Arraylist&amp;lt;Point&amp;gt;" style="rounded=0;whiteSpace=wrap;html=1;" vertex="1" parent="1">
          <mxGeometry x="354" y="190" width="120" height="60" as="geometry" />
        </mxCell>
        <mxCell id="i9TXsx5ZJMtYGrcfUgoK-16" style="edgeStyle=orthogonalEdgeStyle;rounded=0;orthogonalLoop=1;jettySize=auto;html=1;exitX=0.5;exitY=1;exitDx=0;exitDy=0;" edge="1" parent="1" source="i9TXsx5ZJMtYGrcfUgoK-3" target="i9TXsx5ZJMtYGrcfUgoK-4">
          <mxGeometry relative="1" as="geometry" />
        </mxCell>
        <mxCell id="i9TXsx5ZJMtYGrcfUgoK-3" value="Fjernelse af førstePunkt" style="rounded=0;whiteSpace=wrap;html=1;" vertex="1" parent="1">
          <mxGeometry x="354" y="270" width="120" height="60" as="geometry" />
        </mxCell>
        <mxCell id="i9TXsx5ZJMtYGrcfUgoK-6" style="edgeStyle=orthogonalEdgeStyle;rounded=0;orthogonalLoop=1;jettySize=auto;html=1;exitX=0;exitY=0.5;exitDx=0;exitDy=0;entryX=0.5;entryY=0;entryDx=0;entryDy=0;" edge="1" parent="1" source="i9TXsx5ZJMtYGrcfUgoK-4" target="i9TXsx5ZJMtYGrcfUgoK-5">
          <mxGeometry relative="1" as="geometry" />
        </mxCell>
        <mxCell id="i9TXsx5ZJMtYGrcfUgoK-14" style="edgeStyle=orthogonalEdgeStyle;rounded=0;orthogonalLoop=1;jettySize=auto;html=1;exitX=1;exitY=0.5;exitDx=0;exitDy=0;entryX=0;entryY=0.5;entryDx=0;entryDy=0;" edge="1" parent="1" source="i9TXsx5ZJMtYGrcfUgoK-4" target="i9TXsx5ZJMtYGrcfUgoK-13">
          <mxGeometry relative="1" as="geometry" />
        </mxCell>
        <mxCell id="i9TXsx5ZJMtYGrcfUgoK-4" value="For loop(Antal Bomber)" style="rounded=0;whiteSpace=wrap;html=1;" vertex="1" parent="1">
          <mxGeometry x="354" y="350" width="120" height="60" as="geometry" />
        </mxCell>
        <mxCell id="i9TXsx5ZJMtYGrcfUgoK-12" style="edgeStyle=orthogonalEdgeStyle;rounded=0;orthogonalLoop=1;jettySize=auto;html=1;exitX=0.5;exitY=1;exitDx=0;exitDy=0;entryX=0.5;entryY=0;entryDx=0;entryDy=0;" edge="1" parent="1" source="i9TXsx5ZJMtYGrcfUgoK-5" target="i9TXsx5ZJMtYGrcfUgoK-9">
          <mxGeometry relative="1" as="geometry" />
        </mxCell>
        <mxCell id="i9TXsx5ZJMtYGrcfUgoK-5" value="Random(antal bomberr-i)" style="rounded=0;whiteSpace=wrap;html=1;" vertex="1" parent="1">
          <mxGeometry x="200" y="400" width="120" height="60" as="geometry" />
        </mxCell>
        <mxCell id="i9TXsx5ZJMtYGrcfUgoK-8" style="edgeStyle=orthogonalEdgeStyle;rounded=0;orthogonalLoop=1;jettySize=auto;html=1;exitX=0.5;exitY=0;exitDx=0;exitDy=0;entryX=0.5;entryY=1;entryDx=0;entryDy=0;" edge="1" parent="1" source="i9TXsx5ZJMtYGrcfUgoK-7" target="i9TXsx5ZJMtYGrcfUgoK-4">
          <mxGeometry relative="1" as="geometry" />
        </mxCell>
        <mxCell id="i9TXsx5ZJMtYGrcfUgoK-7" value="Private spilleplade array opdateres med Bombe på valgte placering." style="rounded=0;whiteSpace=wrap;html=1;" vertex="1" parent="1">
          <mxGeometry x="354" y="500" width="120" height="60" as="geometry" />
        </mxCell>
        <mxCell id="i9TXsx5ZJMtYGrcfUgoK-10" style="edgeStyle=orthogonalEdgeStyle;rounded=0;orthogonalLoop=1;jettySize=auto;html=1;exitX=1;exitY=0.5;exitDx=0;exitDy=0;entryX=0;entryY=0.5;entryDx=0;entryDy=0;" edge="1" parent="1" source="i9TXsx5ZJMtYGrcfUgoK-9" target="i9TXsx5ZJMtYGrcfUgoK-7">
          <mxGeometry relative="1" as="geometry" />
        </mxCell>
        <mxCell id="i9TXsx5ZJMtYGrcfUgoK-9" value="Fjernelse af valgte pont fra Arraylist" style="rounded=0;whiteSpace=wrap;html=1;" vertex="1" parent="1">
          <mxGeometry x="200" y="500" width="120" height="60" as="geometry" />
        </mxCell>
        <mxCell id="i9TXsx5ZJMtYGrcfUgoK-13" value="Algoritme færdig. Spillet startes" style="rounded=0;whiteSpace=wrap;html=1;" vertex="1" parent="1">
          <mxGeometry x="550" y="350" width="120" height="60" as="geometry" />
        </mxCell>
      </root>
    </mxGraphModel>
  </diagram>
</mxfile>
